<?xml version="1.0" encoding="utf-8"?>
<!-- Generator: Adobe Illustrator 16.0.0, SVG Export Plug-In . SVG Version: 6.00 Build 0)  -->
<!DOCTYPE svg PUBLIC "-//W3C//DTD SVG 1.1//EN" "http://www.w3.org/Graphics/SVG/1.1/DTD/svg11.dtd">
<svg version="1.1" id="Layer_1" xmlns="http://www.w3.org/2000/svg" xmlns:xlink="http://www.w3.org/1999/xlink" x="0px" y="0px"
	 width="625.372px" height="226px" viewBox="0 0 625.372 226" enable-background="new 0 0 625.372 226" xml:space="preserve">
<path fill="#FFFFFF" d="M245.309,36.017c-1.748-0.539-3.924-0.81-6.529-0.81c-4.258,0-7.911,0.985-10.961,2.954
	c-3.05,1.971-5.354,4.545-6.91,7.721c-1.558,3.178-2.335,6.545-2.335,10.104c0,3.56,0.777,6.927,2.335,10.104
	c1.556,3.178,3.86,5.752,6.91,7.721c3.05,1.971,6.704,2.955,10.961,2.955c2.669,0,5.13-0.302,7.387-0.906
	c2.255-0.604,4.178-1.318,5.767-2.145l1.811,14.106c-2.097,0.827-4.513,1.511-7.244,2.05c-2.732,0.54-5.306,0.81-7.72,0.81
	c-7.372,0-13.663-1.62-18.873-4.86c-5.211-3.241-9.135-7.514-11.771-12.82c-2.638-5.305-3.956-10.945-3.956-16.918
	s1.318-11.596,3.956-16.871c2.636-5.273,6.56-9.547,11.771-12.82c5.21-3.271,11.5-4.908,18.873-4.908
	c4.957,0,9.436,0.891,13.439,2.669l-1.621,14.011C248.819,37.273,247.056,36.558,245.309,36.017z"/>
<path fill="#FFFFFF" d="M278.191,86.486c-5.306-3.303-9.293-7.639-11.962-13.01c-2.669-5.369-4.003-11.104-4.003-17.204
	c0-6.036,1.334-11.739,4.003-17.108s6.656-9.707,11.962-13.012c5.305-3.303,11.708-4.955,19.206-4.955
	c7.497,0,13.899,1.652,19.206,4.955c5.305,3.305,9.293,7.643,11.962,13.012c2.669,5.369,4.003,11.072,4.003,17.108
	c0,6.101-1.334,11.835-4.003,17.204c-2.668,5.371-6.657,9.707-11.962,13.01c-5.306,3.306-11.708,4.957-19.206,4.957
	C289.899,91.443,283.496,89.792,278.191,86.486z M308.549,74.333c3.113-2.001,5.448-4.605,7.006-7.815
	c1.556-3.208,2.335-6.624,2.335-10.246s-0.779-7.054-2.335-10.294c-1.558-3.24-3.893-5.846-7.006-7.816
	c-3.114-1.969-6.831-2.954-11.151-2.954c-4.322,0-8.023,0.985-11.104,2.954c-3.083,1.971-5.401,4.561-6.958,7.769
	C277.777,49.14,277,52.587,277,56.272c0,3.622,0.777,7.038,2.335,10.246c1.557,3.21,3.875,5.814,6.958,7.815
	c3.082,2.002,6.782,3.003,11.104,3.003C301.718,77.336,305.435,76.335,308.549,74.333z"/>
<path fill="#FFFFFF" d="M365.546,64.468h-6.577V90.49h-13.63v-68.15h26.879c4.256,0,7.911,0.986,10.961,2.955
	c3.05,1.971,5.338,4.527,6.863,7.673s2.288,6.498,2.288,10.056c0,4.449-1.177,8.482-3.527,12.105
	c-2.352,3.621-5.656,6.037-9.913,7.244l15.822,28.117h-15.441L365.546,64.468z M370.979,51.22c2.224,0,3.939-0.746,5.147-2.24
	c1.207-1.492,1.811-3.288,1.811-5.385c0-2.098-0.604-3.892-1.811-5.386c-1.208-1.492-2.923-2.239-5.147-2.239h-12.009v15.25H370.979
	z"/>
<path fill="#FFFFFF" d="M426.355,19.862h1.43l28.689,70.628h-15.346l-2.764-7.34h-22.589l-2.669,7.34h-15.441L426.355,19.862z
	 M433.313,70.378l-6.196-17.729l-6.386,17.729H433.313z"/>
<path fill="#FFFFFF" d="M479.637,22.339V76.86h21.636v13.63h-35.267v-68.15H479.637z"/>
<path fill="#FFFFFF" d="M547.023,90.49V63.23h-20.397v27.26h-13.63v-68.15h13.63v27.26h20.397v-27.26h13.63v68.15H547.023z"/>
<path fill="#FFFFFF" d="M596.206,64.468h-6.577V90.49h-13.63v-68.15h26.879c4.257,0,7.911,0.986,10.961,2.955
	c3.05,1.971,5.338,4.527,6.863,7.673c1.524,3.146,2.287,6.498,2.287,10.056c0,4.449-1.177,8.482-3.526,12.105
	c-2.352,3.621-5.656,6.037-9.913,7.244l15.822,28.117h-15.44L596.206,64.468z M601.638,51.22c2.224,0,3.939-0.746,5.147-2.24
	c1.206-1.492,1.811-3.288,1.811-5.385c0-2.098-0.604-3.892-1.811-5.386c-1.208-1.492-2.924-2.239-5.147-2.239h-12.01v15.25H601.638z
	"/>
<path fill="#FFFFFF" d="M207.181,204.867v-66.738h4.607v62.551h26.761v4.188H207.181z"/>
<path fill="#FFFFFF" d="M340.373,204.867v-66.738h4.607v66.738H340.373z"/>
<path fill="#FFFFFF" d="M473.76,142.364v62.503h-4.561v-62.503h-19.268v-4.235h43.096v4.235H473.76z"/>
<path fill="#FFFFFF" d="M589.654,204.867v-66.738h31.182v4.235h-26.574v26.761h24.666v4.188h-24.666v27.366h28.11v4.188H589.654z"/>
<path fill="#FFFFFF" d="M180.606,88.4c-0.324-0.014-0.647-0.027-0.993-0.016c-6.275,0.225-10.135,9.98-11.338,16.54
	c-1.188,6.575-5.805,17.572-15.105,14.813c-21.456-6.371-16.257-28.259-15.506-32.332c0.746-4.084,11.054-28.946,6.721-35.055
	c-4.323-6.104-10.798-1.92-12.176,3.464c-0.552,2.199-3.016,10.821-4.002,14.479c-4.406-3.861-9.977-9.066-13.313-9.002
	c-4.888,0.072-8.512,6.803-4.033,11.763c3.598,4.007,6.709,6.339,11.183,12.37c-1.9,8.047-3.733,14.198-11.716,20.236
	c-13.182,9.682-24.023,17.673-25.282,18.021c-7.627,2.089,11.771-45.309,6.955-51.24c-4.805-5.926-10.943-7.771-15.293-1.691
	c-3.667,5.1-26.368,36.918-24.02,32.08c2.904-6.027-2.461-11.463-7.169-10.174c-3.225,0.883-8.797,8.932-11.972,13.884
	c-1.618-2.694-3.065-5.118-4.16-6.999C30.959,54.705,67.782,18.831,113,18.831c27.79,0,52.391,13.56,67.605,34.408V22.483
	c-5.038-3.748-10.42-7.107-16.12-10.028C148.354,4.194,131.056,0,113.057,0C70.412,0,31.85,23.556,12.423,61.482
	c-28.413,55.44-6.429,123.656,49.018,152.062C77.572,221.805,94.877,226,112.877,226c24.991,0,48.572-8.101,67.729-22.433V88.4z"/>
</svg>
