<?xml version="1.0" encoding="utf-8"?>
<!-- Generator: Adobe Illustrator 16.0.0, SVG Export Plug-In . SVG Version: 6.00 Build 0)  -->
<!DOCTYPE svg PUBLIC "-//W3C//DTD SVG 1.1//EN" "http://www.w3.org/Graphics/SVG/1.1/DTD/svg11.dtd">
<svg version="1.1" id="Layer_1" xmlns="http://www.w3.org/2000/svg" xmlns:xlink="http://www.w3.org/1999/xlink" x="0px" y="0px"
	 width="16px" height="16px" viewBox="0 0 16 16" enable-background="new 0 0 16 16" xml:space="preserve">
<path d="M15.609,5.546c-0.655-2.034-2.063-3.69-3.965-4.665C10.502,0.297,9.277,0,8.004,0c-3.02,0-5.75,1.667-7.125,4.353
	c-2.011,3.925-0.455,8.754,3.471,10.765C5.491,15.703,6.717,16,7.991,16c3.019,0,5.748-1.667,7.124-4.353
	C16.09,9.746,16.266,7.579,15.609,5.546z M13.283,7.187c0.123-0.526-0.04-0.949-0.567-0.93c-0.444,0.016-0.718,0.707-0.803,1.171
	c-0.084,0.465-0.411,1.244-1.069,1.049c-1.52-0.451-1.151-2.001-1.098-2.289c0.053-0.289,0.782-2.049,0.476-2.482
	C9.915,3.274,9.457,3.57,9.359,3.951C9.32,4.107,9.146,4.717,9.076,4.977C8.764,4.703,8.37,4.334,8.134,4.339
	C7.787,4.344,7.531,4.821,7.848,5.172C8.103,5.456,8.323,5.621,8.64,6.047C8.505,6.617,8.375,7.053,7.811,7.48
	c-0.934,0.686-1.701,1.252-1.79,1.276C5.48,8.904,6.854,5.548,6.513,5.128c-0.34-0.419-0.774-0.55-1.083-0.12
	C5.171,5.37,3.563,7.623,3.729,7.28c0.206-0.427-0.174-0.812-0.508-0.72C2.993,6.622,2.599,7.192,2.374,7.542
	C2.26,7.352,2.157,7.18,2.08,7.047C2.191,3.873,4.798,1.333,8,1.333c3.254,0,5.893,2.623,5.923,5.87
	C13.552,7.379,13.231,7.404,13.283,7.187z"/>
</svg>
